{
  "accessors": [
    {
      "bufferView": 2,
      "componentType": 5126,
      "count": 2334,
      "max": [
        1.2855370044708252,
        1.5508610010147095,
        0.62073200941085815
      ],
      "min": [
        -2.4450039863586426,
        -5.8688797950744629,
        -0.10765299946069717
      ],
      "type": "VEC3"
    },
    {
      "bufferView": 2,
      "byteOffset": 28008,
      "componentType": 5126,
      "count": 2334,
      "max": [
        0.99987566471099854,
        0.99998235702514648,
        0.99981409311294556
      ],
      "min": [
        -0.99952501058578491,
        -0.9999890923500061,
        -0.99997061491012573
      ],
      "type": "VEC3"
    },
    {
      "bufferView": 1,
      "componentType": 5126,
      "count": 2334,
      "max": [
        0.99331802129745483,
        0.99582499265670776
      ],
      "min": [
        0.021423999220132828,
        0.0085110003128647804
      ],
      "type": "VEC2"
    },
    {
      "bufferView": 0,
      "componentType": 5125,
      "count": 12690,
      "max": [
        2333
      ],
      "min": [
        0
      ],
      "type": "SCALAR"
    },
    {
      "bufferView": 2,
      "byteOffset": 56016,
      "componentType": 5126,
      "count": 208,
      "max": [
        1.0265820026397705,
        1.8835949897766113,
        0.60602700710296631
      ],
      "min": [
        -0.59006601572036743,
        0.75257599353790283,
        0.30631399154663086
      ],
      "type": "VEC3"
    },
    {
      "bufferView": 2,
      "byteOffset": 58512,
      "componentType": 5126,
      "count": 208,
      "max": [
        0.24435591697692871,
        0.22925899922847748,
        0.99674421548843384
      ],
      "min": [
        -0.24435591697692871,
        -0.22925899922847748,
        -0.99674421548843384
      ],
      "type": "VEC3"
    },
    {
      "bufferView": 1,
      "byteOffset": 18672,
      "componentType": 5126,
      "count": 208,
      "max": [
        0.9982069730758667,
        0.98625397682189941
      ],
      "min": [
        0.0046190000139176846,
        0.013745999895036221
      ],
      "type": "VEC2"
    },
    {
      "bufferView": 0,
      "byteOffset": 50760,
      "componentType": 5125,
      "count": 576,
      "max": [
        207
      ],
      "min": [
        0
      ],
      "type": "SCALAR"
    }
  ],
  "asset": {
    "extras": {
      "author": "Oxford University Museum of Natural History (https://sketchfab.com/morethanadodo)",
      "license": "CC-BY-NC-4.0 (http://creativecommons.org/licenses/by-nc/4.0/)",
      "source": "https://sketchfab.com/3d-models/lingulella-chengjiangensis-68b160d1bb74432ea4549300bf4ac620",
      "title": "Lingulella chengjiangensis"
    },
    "generator": "Sketchfab-8.49.0",
    "version": "2.0"
  },
  "bufferViews": [
    {
      "buffer": 0,
      "byteLength": 53064,
      "byteOffset": 0,
      "name": "floatBufferViews",
      "target": 34963
    },
    {
      "buffer": 0,
      "byteLength": 20336,
      "byteOffset": 53064,
      "byteStride": 8,
      "name": "floatBufferViews",
      "target": 34962
    },
    {
      "buffer": 0,
      "byteLength": 61008,
      "byteOffset": 73400,
      "byteStride": 12,
      "name": "floatBufferViews",
      "target": 34962
    }
  ],
  "buffers": [
    {
      "byteLength": 134408,
      "uri": "scene.bin"
    }
  ],
  "images": [
    {
      "uri": "/textures/lingulellaanimal3SG_baseColor.png"
    },
    {
      "uri": "/textures/lingulellaanimal3SG2_baseColor.png"
    },
    {
      "uri": "/textures/lingulellaanimal3SG2_metallicRoughness.png"
    }
  ],
  "materials": [
    {
      "doubleSided": true,
      "emissiveFactor": [
        0,
        0,
        0
      ],
      "name": "lingulellaanimal3SG",
      "pbrMetallicRoughness": {
        "baseColorFactor": [
          1,
          1,
          1,
          1
        ],
        "baseColorTexture": {
          "index": 0,
          "texCoord": 0
        },
        "metallicFactor": 0,
        "roughnessFactor": 0.92928932188134528
      }
    },
    {
      "alphaCutoff": 0.40000000000000002,
      "alphaMode": "MASK",
      "doubleSided": true,
      "name": "lingulellaanimal3SG2",
      "pbrMetallicRoughness": {
        "baseColorFactor": [
          1,
          1,
          1,
          1
        ],
        "baseColorTexture": {
          "index": 1,
          "texCoord": 0
        },
        "metallicFactor": 1,
        "metallicRoughnessTexture": {
          "index": 2,
          "texCoord": 0
        },
        "roughnessFactor": 1
      }
    }
  ],
  "meshes": [
    {
      "primitives": [
        {
          "attributes": {
            "NORMAL": 1,
            "POSITION": 0,
            "TEXCOORD_0": 2
          },
          "indices": 3,
          "material": 0,
          "mode": 4
        }
      ]
    },
    {
      "primitives": [
        {
          "attributes": {
            "NORMAL": 5,
            "POSITION": 4,
            "TEXCOORD_0": 6
          },
          "indices": 7,
          "material": 1,
          "mode": 4
        }
      ]
    }
  ],
  "nodes": [
    {
      "children": [
        1
      ],
      "name": "RootNode (gltf orientation matrix)",
      "rotation": [
        -0.70710678118654746,
        -0,
        -0,
        0.70710678118654757
      ]
    },
    {
      "children": [
        2
      ],
      "name": "RootNode (model correction matrix)"
    },
    {
      "children": [
        3,
        4
      ],
      "name": "lingulella.obj.cleaner.materialmerger.gles"
    },
    {
      "mesh": 0,
      "name": ""
    },
    {
      "mesh": 1,
      "name": ""
    }
  ],
  "samplers": [
    {
      "magFilter": 9729,
      "minFilter": 9987,
      "wrapS": 10497,
      "wrapT": 10497
    }
  ],
  "scene": 0,
  "scenes": [
    {
      "name": "OSG_Scene",
      "nodes": [
        0
      ]
    }
  ],
  "textures": [
    {
      "sampler": 0,
      "source": 0
    },
    {
      "sampler": 0,
      "source": 1
    },
    {
      "sampler": 0,
      "source": 2
    }
  ]
}

