{
  "accessors": [
    {
      "bufferView": 1,
      "componentType": 5126,
      "count": 266,
      "max": [
        0.10711999982595444,
        0.88134002685546875,
        0.26291999220848083
      ],
      "min": [
        -0.10711999982595444,
        0.72947001457214355,
        0.054249998182058334
      ],
      "type": "VEC3"
    },
    {
      "bufferView": 1,
      "byteOffset": 3192,
      "componentType": 5126,
      "count": 266,
      "max": [
        1,
        0.99755460023880005,
        0.9971199631690979
      ],
      "min": [
        -1,
        -0.99755460023880005,
        -0.99711769819259644
      ],
      "type": "VEC3"
    },
    {
      "bufferView": 0,
      "componentType": 5125,
      "count": 1584,
      "max": [
        265
      ],
      "min": [
        0
      ],
      "type": "SCALAR"
    },
    {
      "bufferView": 1,
      "byteOffset": 6384,
      "componentType": 5126,
      "count": 65532,
      "max": [
        0.94385999441146851,
        1.9318599700927734,
        0.47742000222206116
      ],
      "min": [
        -1.1181600093841553,
        -1.4040999412536621,
        -0.96188002824783325
      ],
      "type": "VEC3"
    },
    {
      "bufferView": 1,
      "byteOffset": 792768,
      "componentType": 5126,
      "count": 65532,
      "max": [
        0.99999922513961792,
        0.99999505281448364,
        0.99999982118606567
      ],
      "min": [
        -0.99999696016311646,
        -0.99997729063034058,
        -0.99999362230300903
      ],
      "type": "VEC3"
    },
    {
      "bufferView": 0,
      "byteOffset": 6336,
      "componentType": 5125,
      "count": 377160,
      "max": [
        65531
      ],
      "min": [
        0
      ],
      "type": "SCALAR"
    },
    {
      "bufferView": 1,
      "byteOffset": 1579152,
      "componentType": 5126,
      "count": 65532,
      "max": [
        1.6430200338363647,
        1.8837399482727051,
        0.47745999693870544
      ],
      "min": [
        -2.1172699928283691,
        -2.3903400897979736,
        -0.74722999334335327
      ],
      "type": "VEC3"
    },
    {
      "bufferView": 1,
      "byteOffset": 2365536,
      "componentType": 5126,
      "count": 65532,
      "max": [
        0.99999719858169556,
        0.99998098611831665,
        0.99999898672103882
      ],
      "min": [
        -0.99999743700027466,
        -0.99998933076858521,
        -0.9999660849571228
      ],
      "type": "VEC3"
    },
    {
      "bufferView": 0,
      "byteOffset": 1514976,
      "componentType": 5125,
      "count": 353370,
      "max": [
        65531
      ],
      "min": [
        0
      ],
      "type": "SCALAR"
    },
    {
      "bufferView": 1,
      "byteOffset": 3151920,
      "componentType": 5126,
      "count": 59520,
      "max": [
        4.0408101081848145,
        1.7604600191116333,
        0.44449999928474426
      ],
      "min": [
        -4.0409798622131348,
        -3.5271298885345459,
        -0.59397000074386597
      ],
      "type": "VEC3"
    },
    {
      "bufferView": 1,
      "byteOffset": 3866160,
      "componentType": 5126,
      "count": 59520,
      "max": [
        0.99998587369918823,
        0.99999672174453735,
        0.99999886751174927
      ],
      "min": [
        -0.9999958872795105,
        -0.99999791383743286,
        -0.99998944997787476
      ],
      "type": "VEC3"
    },
    {
      "bufferView": 0,
      "byteOffset": 2928456,
      "componentType": 5125,
      "count": 333312,
      "max": [
        59519
      ],
      "min": [
        0
      ],
      "type": "SCALAR"
    },
    {
      "bufferView": 1,
      "byteOffset": 4580400,
      "componentType": 5126,
      "count": 28781,
      "max": [
        3.963360071182251,
        1.2435400485992432,
        0.38782000541687012
      ],
      "min": [
        -3.9762899875640869,
        -2.634429931640625,
        -0.41629999876022339
      ],
      "type": "VEC3"
    },
    {
      "bufferView": 1,
      "byteOffset": 4925772,
      "componentType": 5126,
      "count": 28781,
      "max": [
        0.99992668628692627,
        0.99994689226150513,
        0.99999994039535522
      ],
      "min": [
        -0.99999362230300903,
        -0.99996620416641235,
        -0.99999874830245972
      ],
      "type": "VEC3"
    },
    {
      "bufferView": 0,
      "byteOffset": 4261704,
      "componentType": 5125,
      "count": 171447,
      "max": [
        28780
      ],
      "min": [
        0
      ],
      "type": "SCALAR"
    },
    {
      "bufferView": 1,
      "byteOffset": 5271144,
      "componentType": 5126,
      "count": 1394,
      "max": [
        1.3169000148773193,
        1.3169000148773193,
        1.4637299776077271
      ],
      "min": [
        -1.3169000148773193,
        -1.3169000148773193,
        -2.3469400405883789
      ],
      "type": "VEC3"
    },
    {
      "bufferView": 1,
      "byteOffset": 5287872,
      "componentType": 5126,
      "count": 1394,
      "max": [
        0.9985235333442688,
        0.9937664270401001,
        1
      ],
      "min": [
        -0.99298971891403198,
        -0.99767094850540161,
        -0.99960488080978394
      ],
      "type": "VEC3"
    },
    {
      "bufferView": 0,
      "byteOffset": 4947492,
      "componentType": 5125,
      "count": 8352,
      "max": [
        1393
      ],
      "min": [
        0
      ],
      "type": "SCALAR"
    },
    {
      "bufferView": 1,
      "byteOffset": 5304600,
      "componentType": 5126,
      "count": 4674,
      "max": [
        221.7823486328125,
        156.5565185546875,
        89.754051208496094
      ],
      "min": [
        -1.0939600467681885,
        -21.532730102539062,
        -79.86932373046875
      ],
      "type": "VEC3"
    },
    {
      "bufferView": 1,
      "byteOffset": 5360688,
      "componentType": 5126,
      "count": 4674,
      "max": [
        1,
        1,
        1
      ],
      "min": [
        -1,
        -1,
        -1
      ],
      "type": "VEC3"
    },
    {
      "bufferView": 0,
      "byteOffset": 4980900,
      "componentType": 5125,
      "count": 27552,
      "max": [
        4673
      ],
      "min": [
        0
      ],
      "type": "SCALAR"
    }
  ],
  "asset": {
    "extras": {
      "author": "JuanG3D (https://sketchfab.com/juang3d)",
      "license": "CC-BY-4.0 (http://creativecommons.org/licenses/by/4.0/)",
      "source": "https://sketchfab.com/models/ff5c552cf5d94454b76894b07b3f2698",
      "title": "Plankton #3DSM4"
    },
    "generator": "Sketchfab-3.20.6",
    "version": "2.0"
  },
  "bufferViews": [
    {
      "buffer": 0,
      "byteLength": 5091108,
      "byteOffset": 0,
      "name": "floatBufferViews",
      "target": 34963
    },
    {
      "buffer": 0,
      "byteLength": 5416776,
      "byteOffset": 5091108,
      "byteStride": 12,
      "name": "floatBufferViews",
      "target": 34962
    }
  ],
  "buffers": [
    {
      "byteLength": 10507884,
      "uri": "scene.bin"
    }
  ],
  "materials": [
    {
      "alphaMode": "BLEND",
      "doubleSided": true,
      "emissiveFactor": [
        0,
        0,
        0
      ],
      "name": "Burbujas",
      "pbrMetallicRoughness": {
        "baseColorFactor": [
          0.59676127429999999,
          0.60163781640000005,
          0.80000007149999997,
          0.49
        ],
        "metallicFactor": 0,
        "roughnessFactor": 0.59999999999999998
      }
    },
    {
      "alphaMode": "BLEND",
      "doubleSided": true,
      "emissiveFactor": [
        0,
        0,
        0
      ],
      "name": "Central",
      "pbrMetallicRoughness": {
        "baseColorFactor": [
          0.80000007149999997,
          0.23890265820000001,
          0.037823270999999999,
          0.050000000000000003
        ],
        "metallicFactor": 0,
        "roughnessFactor": 0.59999999999999998
      }
    },
    {
      "alphaMode": "BLEND",
      "doubleSided": true,
      "emissiveFactor": [
        0.3050611502160000004,
        0.311273567022000001,
        0.325039677707999999
      ],
      "name": "PlanktonINTERNAL",
      "pbrMetallicRoughness": {
        "baseColorFactor": [
          0.7529410124,
          0.7529410124,
          0.7529410124,
          0.60000000000000001
        ],
        "metallicFactor": 0,
        "roughnessFactor": 0.59999999999999998
      }
    },
    {
      "alphaMode": "BLEND",
      "doubleSided": true,
      "emissiveFactor": [
        0,
        0,
        0
      ],
      "name": "OjoMat",
      "pbrMetallicRoughness": {
        "baseColorFactor": [
          1,
          0.817650004,
          0.878429998999999997,
          0.83000000000000001
        ],
        "metallicFactor": 0,
        "roughnessFactor": 0.59999999999999998
      }
    },
    {
      "alphaMode": "BLEND",
      "doubleSided": true,
      "emissiveFactor": [
        0,
        0,
        0
      ],
      "name": "External",
      "pbrMetallicRoughness": {
        "baseColorFactor": [
          0.74901998039999995,
          0.74901998039999995,
          0.74901998039999995,
          0.70000000000000001
        ],
        "metallicFactor": 0,
        "roughnessFactor": 0.59999999999999998
      }
    }
  ],
  "meshes": [
    {
      "name": "PlanktonExternal2_0",
      "primitives": [
        {
          "attributes": {
            "NORMAL": 1,
            "POSITION": 0
          },
          "indices": 2,
          "material": 3,
          "mode": 4
        }
      ]
    },
    {
      "name": "PlanktonExternal2_1",
      "primitives": [
        {
          "attributes": {
            "NORMAL": 4,
            "POSITION": 3
          },
          "indices": 5,
          "material": 4,
          "mode": 4
        }
      ]
    },
    {
      "name": "PlanktonExternal2_1",
      "primitives": [
        {
          "attributes": {
            "NORMAL": 7,
            "POSITION": 6
          },
          "indices": 8,
          "material": 4,
          "mode": 4
        }
      ]
    },
    {
      "name": "PlanktonExternal2_1",
      "primitives": [
        {
          "attributes": {
            "NORMAL": 10,
            "POSITION": 9
          },
          "indices": 11,
          "material": 4,
          "mode": 4
        }
      ]
    },
    {
      "name": "PlanktonInternal_0",
      "primitives": [
        {
          "attributes": {
            "NORMAL": 13,
            "POSITION": 12
          },
          "indices": 14,
          "material": 2,
          "mode": 4
        }
      ]
    },
    {
      "name": "Cylinder_0",
      "primitives": [
        {
          "attributes": {
            "NORMAL": 16,
            "POSITION": 15
          },
          "indices": 17,
          "material": 1,
          "mode": 4
        }
      ]
    },
    {
      "name": "Sphere.033_0",
      "primitives": [
        {
          "attributes": {
            "NORMAL": 19,
            "POSITION": 18
          },
          "indices": 20,
          "material": 0,
          "mode": 4
        }
      ]
    }
  ],
  "nodes": [
    {
      "children": [
        1
      ],
      "name": "RootNode (gltf orientation matrix)",
      "rotation": [
        -0.70710678118654746,
        -0,
        -0,
        0.70710678118654757
      ]
    },
    {
      "children": [
        2
      ],
      "name": "RootNode (model correction matrix)"
    },
    {
      "children": [
        3,
        8,
        10,
        12
      ],
      "name": "Root"
    },
    {
      "children": [
        4,
        5,
        6,
        7
      ],
      "matrix": [
        1,
        0,
        0,
        0,
        0,
        -0,
        1,
        0,
        0,
        -1,
        -0,
        0,
        0,
        0,
        0,
        1
      ],
      "name": "PlanktonExternal2"
    },
    {
      "mesh": 0,
      "name": "PlanktonExternal2_0"
    },
    {
      "mesh": 1,
      "name": "PlanktonExternal2_1"
    },
    {
      "mesh": 2,
      "name": "PlanktonExternal2_1"
    },
    {
      "mesh": 3,
      "name": "PlanktonExternal2_1"
    },
    {
      "children": [
        9
      ],
      "matrix": [
        1,
        0,
        0,
        0,
        0,
        -0,
        1,
        0,
        0,
        -1,
        -0,
        0,
        0,
        0,
        0,
        1
      ],
      "name": "PlanktonInternal"
    },
    {
      "mesh": 4,
      "name": "PlanktonInternal_0"
    },
    {
      "children": [
        11
      ],
      "matrix": [
        0.18584000000000003,
        0,
        0,
        0,
        0,
        0.18584000000000003,
        0,
        0,
        0,
        0,
        0.90707000000000004,
        0,
        0,
        0,
        -0.59277000000000013,
        1
      ],
      "name": "Cylinder"
    },
    {
      "mesh": 5,
      "name": "Cylinder_0"
    },
    {
      "children": [
        13
      ],
      "matrix": [
        0.061560000000000011,
        0,
        0,
        0,
        0,
        0.061560000000000011,
        0,
        0,
        0,
        0,
        0.061560000000000011,
        0,
        -6.5425699999999996,
        -4.9688699999999999,
        0.58052000000000004,
        1
      ],
      "name": "Sphere.033"
    },
    {
      "mesh": 6,
      "name": "Sphere.033_0"
    }
  ],
  "scene": 0,
  "scenes": [
    {
      "name": "OSG_Scene",
      "nodes": [
        0
      ]
    }
  ]
}

